<?xml version="1.0" encoding="UTF-8"?>
<svg width="362px" height="42px" viewBox="0 0 362 42" version="1.1" xmlns="http://www.w3.org/2000/svg" xmlns:xlink="http://www.w3.org/1999/xlink">
    <!-- Generator: Sketch 42 (36781) - http://www.bohemiancoding.com/sketch -->
    <title>logo-wouterhamel</title>
    <desc>Created with Sketch.</desc>
    <defs></defs>
    <g id="Page-1" stroke="none" stroke-width="1" fill="none" fill-rule="evenodd">
        <g id="logo-wouterhamel" fill-rule="nonzero" fill="#000000">
            <path d="M28.2796036,41.2700128 L22.3135907,24.3576358 L16.5683554,41.2700128 L9.42820708,41.2700128 L-2.84217094e-14,14.7801432 L7.69710999,14.7801432 L13.0509668,32.1791712 L19.2979694,14.7801432 L25.3191767,14.7801432 L31.4608081,32.1791712 L36.8698593,14.7801432 L44.602093,14.7801432 L35.0685148,41.2700128 L28.2796036,41.2700128 Z M61.1905191,41.9974808 C56.1754836,42.0928891 51.5000204,39.4723448 48.9645522,35.1449646 C46.429084,30.8175845 46.429084,25.4583375 48.9645522,21.1309573 C51.5000204,16.8035771 56.1754836,14.1830328 61.1905191,14.2784411 C69.0532123,14.2784411 75.3002148,20.4142575 75.3002148,28.1103673 C75.277713,31.8248631 73.7768623,35.3775142 71.1292958,37.983315 C68.4817293,40.5891158 64.9053904,42.0335609 61.1905191,41.9974808 L61.1905191,41.9974808 Z M61.1905191,20.8607723 C57.1763713,20.9050661 53.9555106,24.1897498 53.9904956,28.203468 C54.0254806,32.2171862 57.3031086,35.4452414 61.3174188,35.4195745 C65.3317289,35.3939076 68.5678004,32.1242047 68.551445,28.1103673 C68.5019707,24.0816947 65.2200178,20.8426693 61.1905191,20.8457213 L61.1905191,20.8607723 Z M98.8933121,14.7801432 L105.752471,14.7801432 L105.752471,30.3329075 C105.752471,38.6410939 100.789992,41.9874468 93.31366,41.9874468 C85.8373276,41.9874468 80.8798669,38.651128 80.8798669,30.3379246 L80.8798669,14.7851602 L87.7540786,14.7851602 L87.7540786,28.4966779 C87.7540786,32.9618264 88.6321713,35.3950815 93.31366,35.3950815 C97.9951487,35.3950815 98.8933121,32.9417583 98.8933121,28.4816269 L98.8933121,14.7801432 Z M127.840266,41.3252 C126.116112,41.8051498 124.330937,42.029958 122.541604,41.9924638 C117.35333,41.9924638 114.678911,38.5909237 114.678911,33.4033242 L114.678911,21.3474234 L110.494171,21.3474234 L110.494171,14.7801432 L114.678911,14.7801432 L114.678911,5.79465898 L121.538069,5.79465898 L121.538069,14.7751262 L128.562811,14.7751262 L128.562811,21.3474234 L121.538069,21.3474234 L121.538069,31.9584223 C121.538069,33.7996689 122.039836,35.525524 124.493478,35.525524 C125.614544,35.5159581 126.733299,35.4220418 127.840266,35.2445709 L127.840266,41.3252 Z M140.003105,30.2827373 C140.785862,33.5187157 143.405087,35.8014602 147.364031,35.8014602 C149.762478,35.8014602 152.326509,34.9084305 153.887005,32.8464349 L158.573512,36.5841154 C156.175064,39.9856555 151.935131,41.9924638 147.419225,41.9924638 C139.441126,41.9924638 133.309529,36.0272261 133.309529,28.270912 C133.309529,20.7453809 138.608192,14.2734241 147.032864,14.2734241 C154.840363,14.2734241 160.364821,20.6299894 160.364821,28.1053503 C160.367236,28.8327149 160.311867,29.5591224 160.199238,30.2777203 L140.003105,30.2827373 Z M153.44545,25.2657166 C153.054072,22.5866275 150.264246,20.5246319 146.97767,20.5246319 C143.939293,20.4791732 141.216143,22.3922162 140.2289,25.2657166 L153.44545,25.2657166 Z M166.496417,41.2700128 L166.496417,14.7801432 L173.355576,14.7801432 L173.355576,16.7317642 C175.919606,14.8353304 178.43346,14.2784411 183.561522,14.2784411 L183.561522,20.8457213 C174.805683,20.8457213 173.355576,23.2990444 173.355576,27.8695503 L173.355576,41.2700128 L166.496417,41.2700128 Z M221.991877,41.2700128 L221.991877,27.1069632 C221.991877,21.9745509 219.257246,20.8607723 216.527632,20.8607723 C213.798018,20.8607723 211.063386,21.9193637 211.063386,26.9965887 L211.063386,41.2700128 L204.19921,41.2700128 L204.19921,0 L211.058369,0 L211.058369,16.7317642 C212.56367,15.6179856 214.405156,14.2784411 218.027916,14.2784411 C223.828346,14.2784411 228.851036,17.6799812 228.851036,25.9881676 L228.851036,41.2700128 L221.991877,41.2700128 Z M255.846115,41.2700128 L255.846115,39.5391406 C253.759407,41.2007543 251.151654,42.0698922 248.48519,41.9924638 C243.470154,42.0878721 238.794691,39.4673278 236.259223,35.1399476 C233.723754,30.8125674 233.723754,25.4533204 236.259223,21.1259402 C238.794691,16.7985601 243.470154,14.1780158 248.48519,14.2734241 C251.149655,14.2149299 253.751664,15.0839272 255.846115,16.7317642 L255.846115,14.7801432 L262.705274,14.7801432 L262.705274,41.2700128 L255.846115,41.2700128 Z M248.48519,20.8457213 C244.472994,20.8899683 241.252892,24.1715808 241.285078,28.1833702 C241.317264,32.1951596 244.589604,35.4246977 248.601993,35.4045813 C252.614383,35.3844648 255.854167,32.1222777 255.846115,28.1103673 C255.796641,24.0816947 252.514688,20.8426693 248.48519,20.8457213 L248.48519,20.8457213 Z M305.546164,41.2700128 L305.546164,27.1069632 C305.546164,21.6986148 303.147716,20.8607723 300.694074,20.8607723 C297.959443,20.8607723 295.174634,21.9193637 295.174634,26.9965887 L295.174634,41.2700128 L288.310458,41.2700128 L288.310458,27.1069632 C288.310458,21.6935978 285.912011,20.8457213 283.443316,20.8457213 C280.708684,20.8457213 277.923876,21.9043127 277.923876,26.9815377 L277.923876,41.2700128 L271.074752,41.2700128 L271.074752,14.7801432 L277.923876,14.7801432 L277.923876,16.7317642 C279.594761,15.5025942 281.270663,14.2784411 284.783034,14.2784411 C288.295405,14.2784411 291.306009,15.5076112 293.147495,18.2368705 C295.36908,15.6702518 298.614396,14.2205227 302.008705,14.2784411 C307.864329,14.2784411 312.385252,17.6799812 312.385252,25.9881676 L312.385252,41.2700128 L305.546164,41.2700128 Z M324.67855,30.2827373 C325.461307,33.5187157 328.080532,35.8014602 332.039476,35.8014602 C334.437924,35.8014602 337.001954,34.9084305 338.562451,32.8464349 L343.248957,36.5841154 C340.855527,39.9856555 336.630647,41.9974808 332.114741,41.9974808 C324.136641,41.9974808 318.005045,36.0322431 318.005045,28.275929 C318.005045,20.7503979 323.303708,14.2784411 331.72838,14.2784411 C339.535879,14.2784411 345.060337,20.6350064 345.060337,28.1103673 C345.062752,28.837732 345.007383,29.5641394 344.894754,30.2827373 L324.67855,30.2827373 Z M338.120895,25.2657166 C337.729517,22.5866275 334.939691,20.5246319 331.653115,20.5246319 C328.614739,20.4791732 325.891588,22.3922162 324.904345,25.2657166 L338.120895,25.2657166 Z M361.994982,41.550966 C361.034729,41.8334522 360.04043,41.9836748 359.039573,41.9974808 C353.961688,41.9974808 351.181898,39.2080173 351.181898,34.1859795 L351.181898,0 L358.041056,0 L358.041056,32.610635 C358.041056,34.3966944 358.542823,35.510473 360.941271,35.510473 C361.295019,35.5158384 361.648728,35.497401 362,35.4552857 L361.994982,41.550966 Z" id="Combined-Shape"></path>
        </g>
    </g>
</svg>